<svg xmlns="http://www.w3.org/2000/svg" viewBox="0 0 482.2 86.8">
    <defs>
        <style>.cls-1{fill:#818892;}.cls-2{fill:#5fa156;}</style>
    </defs>
    <title>logo</title>
    <g id="Layer_2" data-name="Layer 2">
        <g id="Layer_1-2" data-name="Layer 1">
        <path class="cls-1" d="M120.67,22.11A19.86,19.86,0,0,1,135,27.61a1.1,1.1,0,0,1,.06,1.66l-4.61,4.79a1,1,0,0,1-1.48,0,12.08,12.08,0,0,0-8-3c-6.68,0-11.59,5.56-11.59,12.18a11.71,11.71,0,0,0,11.65,12,12.51,12.51,0,0,0,7.92-2.84,1.17,1.17,0,0,1,1.54.06l4.61,4.91a1.18,1.18,0,0,1-.06,1.6,20.29,20.29,0,0,1-14.37,5.74,21.29,21.29,0,1,1,0-42.57Z"/>
        <path class="cls-1" d="M165.94,22.11a21.29,21.29,0,1,1-21.23,21.35A21.25,21.25,0,0,1,165.94,22.11Zm0,33.11a11.83,11.83,0,1,0-11.77-11.77A11.85,11.85,0,0,0,165.94,55.22Z"/>
        <path class="cls-1" d="M191.8,24.24a1,1,0,0,1,1-1.54h7.86a1.16,1.16,0,0,1,1,.65l9.75,21.58h.36l9.76-21.58a1.16,1.16,0,0,1,1-.65h7.86a1,1,0,0,1,1,1.54L212.85,64a1.13,1.13,0,0,1-1,.65h-.59a1.13,1.13,0,0,1-1-.65Z"/>
        <path class="cls-1" d="M248.48,23.36a1.13,1.13,0,0,1,1-.65h.59a1.13,1.13,0,0,1,1,.65l18.56,39.79a1,1,0,0,1-1,1.54h-7.86a1.16,1.16,0,0,1-1-.65L250,42.45h-.36L239.9,64a1.16,1.16,0,0,1-1,.65H231a1,1,0,0,1-1-1.54Z"/>
        <path class="cls-1" d="M281.85,23.83A1.12,1.12,0,0,1,283,22.71h7a1.16,1.16,0,0,1,1.12,1.12V55.4H305.2a1.12,1.12,0,0,1,1.12,1.12V63a1.12,1.12,0,0,1-1.12,1.12H283A1.12,1.12,0,0,1,281.85,63Z"/>
        <path class="cls-1" d="M320.19,23.83a1.12,1.12,0,0,1,1.12-1.12h24.48a1.12,1.12,0,0,1,1.12,1.12v6.44a1.12,1.12,0,0,1-1.12,1.12H329.42v9.83H342.9A1.16,1.16,0,0,1,344,42.35V48.8a1.12,1.12,0,0,1-1.12,1.12H329.42V55.4h16.38a1.12,1.12,0,0,1,1.12,1.12V63a1.12,1.12,0,0,1-1.12,1.12H321.31A1.12,1.12,0,0,1,320.19,63Z"/>
        <path class="cls-1" d="M455.47,23.83a1.12,1.12,0,0,1,1.12-1.12h24.48a1.12,1.12,0,0,1,1.12,1.12v6.44a1.12,1.12,0,0,1-1.12,1.12H464.7v9.83h13.48a1.16,1.16,0,0,1,1.12,1.12V48.8a1.12,1.12,0,0,1-1.12,1.12H464.7V55.4h16.38a1.12,1.12,0,0,1,1.12,1.12V63a1.12,1.12,0,0,1-1.12,1.12H456.6A1.12,1.12,0,0,1,455.47,63Z"/>
        <path class="cls-1" d="M360.69,23.18a1.11,1.11,0,0,1,1.12-1.06h1.48l23.59,22.7h.06v-21a1.12,1.12,0,0,1,1.12-1.12h7.09a1.16,1.16,0,0,1,1.12,1.12V63.62a1.11,1.11,0,0,1-1.12,1.06h-.95a1.74,1.74,0,0,1-.77-.29L370.09,40.92H370V63a1.12,1.12,0,0,1-1.12,1.12h-7A1.16,1.16,0,0,1,360.75,63Z"/>
        <path class="cls-1" d="M429.36,22.11a19.86,19.86,0,0,1,14.31,5.5,1.1,1.1,0,0,1,.06,1.66l-4.61,4.79a1,1,0,0,1-1.48,0,12.08,12.08,0,0,0-8-3c-6.68,0-11.59,5.56-11.59,12.18a11.71,11.71,0,0,0,11.65,12,12.51,12.51,0,0,0,7.92-2.84,1.17,1.17,0,0,1,1.54.06l4.61,4.91a1.18,1.18,0,0,1-.06,1.6,20.29,20.29,0,0,1-14.37,5.74,21.29,21.29,0,1,1,0-42.57Z"/>
        <path class="cls-2" d="M76.44,9c1.46,1.46,1.24,6.77-2.7,15-3.69,7.7-9.74,16.25-16.87,23.9a8.07,8.07,0,1,0,5.4,5.34q1.55-1.66,3-3.37c.07.08,0,0,0,0,.75-.86,1.41-1.66,2.05-2.42,0,0,.07.07,0,0A102.29,102.29,0,0,0,80.6,27.25c5.28-11,5.69-19.19,1.2-23.65-6.55-6.53-18.75.68-34.34,13.1.66.65,1.35,1.35,2,2.09C63.76,8,73.88,6.44,76.44,9Z"/>
        <path class="cls-2" d="M69.28,49.35q-1,1.19-2.21,2.55C74.95,61.43,78.52,70,78.48,75a4.53,4.53,0,0,1-1,3.27C74.1,81.52,59.89,76.84,45.2,62l-5.41-5.36a8.07,8.07,0,1,0-4.49,6.24l3.55,3.52c-.09.07,0,0,0,0,.64.63,1.43,1.44,2.41,2.38,0,0-.08.07,0,0,10.44,10.12,23.51,18,33.06,18a11.62,11.62,0,0,0,8.45-3.13A11.89,11.89,0,0,0,86.07,75C86.14,67.18,78.67,58.89,69.28,49.35Z"/>
        <path class="cls-2" d="M10.9,76.79c-2-1.94-1.46-7.07,1.29-13.37,3.36-7.7,9.57-16.32,17.48-24.27l.19-.19a8.07,8.07,0,1,0-5.65-5.09Q22.56,35.53,21,37.23c-.06-.06,0,0,0,0-.62.67-1.32,1.46-2.08,2.34h0A84.58,84.58,0,0,0,5.23,60.38C1,70,1.12,77.78,5.54,82.17c2.24,2.23,5.34,3.31,9.08,3.31,6.63,0,15.24-7.4,24.53-15Q37.63,69,36.66,68.05C24.18,77.24,13.91,79.78,10.9,76.79Z"/>
        <path class="cls-2" d="M19.29,35.25C11.22,25.58,7.56,16.82,7.6,11.83a4.53,4.53,0,0,1,1-3.27C12,5.27,26.19,10,40.8,24.74l5.73,6a8.07,8.07,0,1,0,4.15-6.65l-3.39-3.55-1-1.08-1-1C31.13,4.59,11.95-5.34,3.3,3.13A11.89,11.89,0,0,0,0,11.77c-.06,7.64,7.75,16.44,17.07,25.94C17.89,36.78,18.65,35.94,19.29,35.25Z"/>
        </g>
    </g>
</svg>